<?xml version="1.0" encoding="UTF-8"?>
<svg width="72px" height="72px" viewBox="0 0 72 72" version="1.1" xmlns="http://www.w3.org/2000/svg" xmlns:xlink="http://www.w3.org/1999/xlink">
    <defs></defs>
    <g id="Page-1" stroke="none" stroke-width="1" fill="none" fill-rule="evenodd">
        <g id="wiki-logo-white" fill="#FFFFFF" fill-rule="nonzero">
            <path d="M47.2290796,55.4555841 L49.3267942,56.6542784 L49.387664,56.5348764 C52.3235058,52.4588367 53.882767,47.6058036 53.882767,42.5113534 C53.9436368,35.9796688 51.4853789,29.8639312 46.9291422,25.3106914 C42.3731455,20.6938609 36.2601648,18.116129 29.7866169,18.116129 C16.4205777,18.116129 5.57419355,29.0236466 5.57419355,42.389686 C5.57419355,55.7557251 16.4211771,66.6045067 29.7866169,66.6045067 C32.1231117,66.6045067 34.3426139,66.3048332 36.4405682,65.6445925 L36.5599702,65.5837228 L36.080025,63.1863344 L35.8997535,63.2472041 C33.8629322,63.8465511 31.7652176,64.2071183 29.6677426,64.2071183 C17.6808008,64.2071183 7.91084404,54.4371617 7.91084404,42.4502199 C7.91084404,30.4632783 17.6808008,20.6933215 29.6677426,20.6933215 C41.6546842,20.6933215 51.4246411,30.4632783 51.4246411,42.4502199 C51.4246411,47.0647131 49.9871669,51.5015596 47.2292113,55.3361823 L47.2290796,55.4555841 Z" id="Shape"></path>
            <path d="M50.6516995,21.4108809 C45.0675769,15.7668776 37.642981,12.6993405 29.7290323,12.6993405 C26.9681384,12.6993405 24.3294601,13.0684168 21.815697,13.8041889 L21.6934691,13.8664992 L22.1224629,16.1360766 L22.3070011,16.0737663 C24.7611289,15.3978995 27.2775916,15.0312528 29.731965,15.0312528 C44.7634981,15.0312528 57.0341374,27.239312 57.0341374,42.3334252 C57.0317409,57.4250846 44.7610441,69.5730175 29.7295107,69.5730175 C14.6979776,69.5107073 2.42733832,57.2397979 2.42733832,42.2708451 C2.42733832,36.5645069 4.14571866,31.1646895 7.45780963,26.503687 L7.58003746,26.3814591 L5.55489116,25.21673 L5.49258085,25.3389579 C1.99833224,30.244821 0.0954014939,36.1358935 0.0954014939,42.3331799 C0.0954014939,58.591777 13.348919,71.8452945 29.6075162,71.8452945 C45.9286934,71.8452945 59.1791433,58.591777 59.1791433,42.3331799 C59.3013711,34.4173905 56.233699,26.9948808 50.6522762,21.4105128 L50.6516995,21.4108809 Z" id="Shape"></path>
            <polygon id="Shape" points="25.5365707 53.1441107 27.9909527 53.1441107 33.9213937 31.3978248 31.4670115 31.3978248"></polygon>
            <polygon id="Shape" points="21.8895867 32.6584693 15.2429767 41.5547986 14.6975659 42.2711347 21.7526995 51.6788703 21.8897069 51.8837268 23.9004251 50.4171167 17.7652212 42.2710279 23.9004251 34.1249391"></polygon>
            <polygon id="Shape" points="37.568478 32.6584693 35.5577597 34.1250794 41.6929636 42.2711682 35.7287853 50.2134963 35.5917779 50.4170498 37.5685915 51.8836599 44.2152014 42.9873306 44.7606121 42.2709945"></polygon>
            <path d="M46.4516129,0 C57.2404922,5.77545956 66.7459361,14.7996151 71.9197853,25.5483871 L71.9197853,0 L46.4516129,0 Z" id="Shape"></path>
        </g>
    </g>
</svg>